<?xml version="1.0" encoding="utf-8"?>
<!-- Generator: Adobe Illustrator 16.0.3, SVG Export Plug-In . SVG Version: 6.00 Build 0)  -->
<!DOCTYPE svg PUBLIC "-//W3C//DTD SVG 1.1//EN" "http://www.w3.org/Graphics/SVG/1.1/DTD/svg11.dtd">
<svg version="1.1" id="Шар_1" xmlns="http://www.w3.org/2000/svg" xmlns:xlink="http://www.w3.org/1999/xlink" x="0px" y="0px"
	 width="35px" height="38px" viewBox="0 0 35 38" enable-background="new 0 0 35 38" xml:space="preserve">
<path fill="#FFFFFF" d="M27.039,8.753c-1.772,1.611-4.562,2.765-6.807,2.765c-1.063,0-2.008-0.258-2.662-0.854
	c-2.032-1.848-0.507-6.229,2.105-8.605c1.521-1.382,3.43-2.102,5.161-2.102c1.248,0,2.404,0.373,3.256,1.146
	C30.127,2.953,29.653,6.376,27.039,8.753L27.039,8.753z M26.134,3.154c-0.38-0.346-0.975-0.397-1.297-0.397
	c-1.074,0-2.271,0.506-3.203,1.351c-1.749,1.591-2.354,3.982-2.075,4.534c0,0,0.002-0.001,0.003-0.001
	c0.035,0,0.239,0.077,0.671,0.077c1.501,0,3.587-0.868,4.85-2.015c1.034-0.94,1.401-1.98,1.401-2.643
	C26.483,3.471,26.222,3.234,26.134,3.154L26.134,3.154z M17.431,10.664c-0.654,0.596-1.598,0.854-2.664,0.854
	c-2.246,0-5.033-1.154-6.805-2.765c-2.613-2.376-3.086-5.8-1.054-7.65c0.85-0.773,2.007-1.146,3.254-1.146
	c1.732,0,3.643,0.72,5.163,2.102C17.938,4.436,19.462,8.817,17.431,10.664L17.431,10.664z M13.367,4.108
	c-0.933-0.845-2.129-1.351-3.205-1.351c-0.321,0-0.915,0.051-1.295,0.397C8.781,3.231,8.518,3.471,8.518,4.06
	c0,0.661,0.369,1.703,1.401,2.643c1.263,1.147,3.348,2.015,4.848,2.015c0.528,0,0.716-0.114,0.718-0.116
	C15.731,8.125,15.128,5.708,13.367,4.108L13.367,4.108z M18.906,22.5V10.146h12.668c1.548,0,2.813,1.235,2.813,2.745V22.5H18.906
	L18.906,22.5z M31.574,37.6H18.906V25.244h15.482v9.609C34.389,36.365,33.122,37.6,31.574,37.6L31.574,37.6z M0.612,22.5v-9.609
	c0-1.509,1.267-2.745,2.814-2.745h12.667V22.5H0.612L0.612,22.5z M3.427,37.6c-1.548,0-2.814-1.234-2.814-2.746v-9.609h15.481V37.6
	H3.427L3.427,37.6z"/>
</svg>
