<?xml version="1.0" encoding="utf-8"?>
<!-- Generator: Adobe Illustrator 16.0.3, SVG Export Plug-In . SVG Version: 6.00 Build 0)  -->
<!DOCTYPE svg PUBLIC "-//W3C//DTD SVG 1.1//EN" "http://www.w3.org/Graphics/SVG/1.1/DTD/svg11.dtd">
<svg version="1.1" id="Шар_1" xmlns="http://www.w3.org/2000/svg" xmlns:xlink="http://www.w3.org/1999/xlink" x="0px" y="0px"
	 width="103.46px" height="51.02px" viewBox="0 0 103.46 51.02" enable-background="new 0 0 103.46 51.02" xml:space="preserve">
<g>
	<path fill="#424d55" d="M27.471,16.807c0.202,0.618,0.462,1.094,0.781,1.426s0.667,0.498,1.045,0.498s0.759-0.159,1.143-0.479
		s0.762-0.742,1.133-1.27s0.729-1.13,1.074-1.807s0.667-1.38,0.967-2.109c-0.013,0.56,0,1.172,0.039,1.836s0.13,1.286,0.273,1.865
		s0.352,1.062,0.625,1.445s0.638,0.576,1.094,0.576c0.43,0,0.882-0.202,1.357-0.605s0.95-0.97,1.426-1.699s0.938-1.592,1.387-2.588
		s0.856-2.09,1.221-3.281s0.674-2.451,0.928-3.779s0.433-2.683,0.537-4.063c0.026-0.352,0.032-0.69,0.02-1.016
		c-0.013-0.273-0.036-0.554-0.068-0.84s-0.088-0.521-0.166-0.703c-0.091-0.026-0.188-0.036-0.293-0.029s-0.208,0.017-0.313,0.029
		c-0.117,0.013-0.228,0.032-0.332,0.059c-0.169,0.039-0.325,0.085-0.469,0.137c-0.286,0.091-0.515,0.208-0.684,0.352
		c0.104,0.43,0.176,0.911,0.215,1.445s0.059,1.035,0.059,1.504c0,0.547-0.02,1.101-0.059,1.66c-0.052,0.677-0.156,1.436-0.313,2.275
		s-0.354,1.692-0.596,2.559s-0.508,1.709-0.801,2.529s-0.596,1.553-0.908,2.197s-0.628,1.162-0.947,1.553s-0.622,0.586-0.908,0.586
		c-0.247,0-0.459-0.212-0.635-0.635s-0.3-1.022-0.371-1.797s-0.081-1.706-0.029-2.793s0.195-2.302,0.43-3.643
		c0.144-0.508,0.293-1.038,0.449-1.592s0.296-1.101,0.42-1.641s0.231-1.048,0.322-1.523s0.149-0.882,0.176-1.221
		c0.013-0.261-0.02-0.469-0.098-0.625s-0.208-0.234-0.391-0.234c-0.261,0.013-0.566,0.186-0.918,0.518s-0.657,0.85-0.918,1.553
		c-0.13,0.364-0.234,0.765-0.313,1.201s-0.14,0.879-0.186,1.328s-0.075,0.892-0.088,1.328s-0.02,0.85-0.02,1.24
		c-0.104,0.313-0.222,0.661-0.352,1.045s-0.264,0.771-0.4,1.162s-0.273,0.771-0.41,1.143s-0.264,0.706-0.381,1.006
		c-0.195,0.469-0.403,0.944-0.625,1.426s-0.446,0.918-0.674,1.309s-0.452,0.71-0.674,0.957s-0.43,0.371-0.625,0.371
		c-0.403,0-0.716-0.394-0.938-1.182s-0.28-1.982-0.176-3.584c0.065-0.794,0.192-1.644,0.381-2.549s0.41-1.797,0.664-2.676
		s0.524-1.709,0.811-2.49s0.56-1.445,0.82-1.992c0.117-0.273,0.247-0.527,0.391-0.762c0.117-0.208,0.244-0.407,0.381-0.596
		s0.276-0.329,0.42-0.42c-0.078-0.052-0.169-0.091-0.273-0.117s-0.208-0.046-0.313-0.059c-0.117-0.013-0.241-0.02-0.371-0.02
		c-0.156,0-0.322,0.017-0.498,0.049s-0.339,0.075-0.488,0.127s-0.28,0.114-0.391,0.186s-0.186,0.14-0.225,0.205
		c-0.026,0.052-0.101,0.234-0.225,0.547s-0.28,0.726-0.469,1.24s-0.394,1.104-0.615,1.768s-0.43,1.37-0.625,2.119
		s-0.371,1.523-0.527,2.324s-0.261,1.585-0.313,2.354c-0.091,1.159-0.095,2.19-0.01,3.096S27.269,16.188,27.471,16.807z"/>
	<path fill="#424d55" d="M46.113,4.414c0.144-0.026,0.283-0.081,0.42-0.166s0.261-0.195,0.371-0.332s0.186-0.276,0.225-0.42
		c0.039-0.13,0.056-0.28,0.049-0.449s-0.036-0.322-0.088-0.459s-0.127-0.247-0.225-0.332s-0.218-0.114-0.361-0.088
		s-0.313,0.114-0.508,0.264s-0.358,0.332-0.488,0.547s-0.188,0.442-0.176,0.684s0.156,0.466,0.43,0.674
		C45.853,4.414,45.97,4.44,46.113,4.414z"/>
	<path fill="#424d55" d="M55.391,15.332c0.091-0.026,0.176-0.071,0.254-0.137c0.091-0.378,0.186-0.811,0.283-1.299
		s0.192-0.94,0.283-1.357c0.104-0.495,0.208-0.996,0.313-1.504c0.169-0.273,0.364-0.554,0.586-0.84s0.452-0.544,0.693-0.771
		s0.481-0.413,0.723-0.557s0.466-0.215,0.674-0.215c0.3,0,0.469,0.146,0.508,0.439s0.01,0.647-0.088,1.064s-0.228,0.85-0.391,1.299
		s-0.29,0.837-0.381,1.162c-0.144,0.521-0.218,0.954-0.225,1.299s0.107,0.667,0.342,0.967c0.261,0.339,0.524,0.508,0.791,0.508
		s0.596-0.11,0.986-0.332c0.352-0.195,0.716-0.442,1.094-0.742s0.752-0.618,1.123-0.957s0.72-0.687,1.045-1.045
		s0.612-0.706,0.859-1.045c0.104-0.144,0.159-0.273,0.166-0.391s-0.02-0.205-0.078-0.264s-0.137-0.085-0.234-0.078
		s-0.192,0.062-0.283,0.166c-0.104,0.104-0.234,0.247-0.391,0.43s-0.325,0.374-0.508,0.576s-0.371,0.4-0.566,0.596
		s-0.371,0.358-0.527,0.488c-0.69,0.56-1.208,0.896-1.553,1.006s-0.576,0.062-0.693-0.146c-0.091-0.156-0.104-0.339-0.039-0.547
		s0.156-0.462,0.273-0.762c0.169-0.43,0.315-0.808,0.439-1.133s0.225-0.622,0.303-0.889s0.14-0.511,0.186-0.732
		s0.068-0.437,0.068-0.645c0.013-0.339-0.013-0.622-0.078-0.85s-0.159-0.41-0.283-0.547s-0.267-0.234-0.43-0.293
		S60.3,7.168,60.117,7.168c-0.352,0-0.684,0.075-0.996,0.225s-0.608,0.339-0.889,0.566s-0.537,0.479-0.771,0.752
		s-0.437,0.54-0.605,0.801c0.286-1.133,0.599-2.197,0.938-3.193s0.645-2.021,0.918-3.076c0.065-0.286,0.124-0.554,0.176-0.801
		c0.026-0.208,0.042-0.41,0.049-0.605s-0.029-0.325-0.107-0.391c-0.026-0.065-0.085-0.107-0.176-0.127s-0.188-0.029-0.293-0.029
		c-0.117,0-0.247,0.013-0.391,0.039s-0.286,0.059-0.43,0.098c-0.117,0.026-0.237,0.059-0.361,0.098S56.94,1.614,56.836,1.68
		c0.039,0.183,0.059,0.384,0.059,0.605s-0.013,0.437-0.039,0.645c-0.026,0.234-0.059,0.476-0.098,0.723
		c-0.04,0.179-0.097,0.433-0.171,0.757c-0.091-0.027-0.221-0.073-0.396-0.142c-0.183-0.071-0.423-0.144-0.723-0.215
		s-0.661-0.137-1.084-0.195S53.477,3.77,52.93,3.77c0.13-0.664,0.202-1.211,0.215-1.641s-0.013-0.696-0.078-0.801
		c-0.065-0.078-0.169-0.127-0.313-0.146s-0.293-0.02-0.449,0s-0.303,0.052-0.439,0.098s-0.225,0.101-0.264,0.166
		c-0.13,0.183-0.276,0.505-0.439,0.967s-0.329,1.006-0.498,1.631c-0.222,0.039-0.446,0.071-0.674,0.098s-0.466,0.046-0.713,0.059
		c-0.339,0.013-0.651,0.01-0.938-0.01s-0.554-0.042-0.801-0.068c-0.078,0-0.166,0.036-0.264,0.107s-0.179,0.156-0.244,0.254
		s-0.104,0.195-0.117,0.293S46.946,4.948,47.051,5c0.183,0.091,0.459,0.186,0.83,0.283s0.765,0.146,1.182,0.146
		c0.183,0,0.384-0.013,0.605-0.039s0.442-0.052,0.664-0.078c-0.183,0.755-0.354,1.54-0.518,2.354s-0.31,1.575-0.439,2.285
		c-0.017,0.089-0.029,0.166-0.044,0.252c-0.058,0.043-0.114,0.098-0.17,0.167c-0.169,0.247-0.43,0.576-0.781,0.986
		s-0.732,0.813-1.143,1.211s-0.813,0.739-1.211,1.025s-0.726,0.43-0.986,0.43c-0.091,0-0.176-0.029-0.254-0.088
		s-0.149-0.166-0.215-0.322c-0.065-0.13-0.085-0.319-0.059-0.566s0.075-0.511,0.146-0.791s0.153-0.566,0.244-0.859
		s0.169-0.557,0.234-0.791s0.163-0.537,0.293-0.908s0.254-0.732,0.371-1.084s0.215-0.657,0.293-0.918s0.11-0.397,0.098-0.41
		c-0.026-0.013-0.12-0.017-0.283-0.01s-0.342,0.026-0.537,0.059s-0.384,0.075-0.566,0.127s-0.306,0.117-0.371,0.195
		c-0.208,0.261-0.394,0.657-0.557,1.191s-0.296,1.097-0.4,1.689s-0.176,1.172-0.215,1.738s-0.039,1.013,0,1.338
		c0.013,0.222,0.078,0.433,0.195,0.635s0.264,0.378,0.439,0.527s0.371,0.267,0.586,0.352s0.433,0.12,0.654,0.107
		c0.273-0.013,0.628-0.183,1.064-0.508s0.882-0.72,1.338-1.182s0.886-0.944,1.289-1.445c0.091-0.114,0.16-0.211,0.241-0.318
		c-0.002,0.014-0.005,0.031-0.007,0.044c-0.078,0.54-0.124,0.915-0.137,1.123c-0.026,0.247-0.007,0.518,0.059,0.811
		s0.179,0.563,0.342,0.811s0.388,0.456,0.674,0.625s0.645,0.254,1.074,0.254c0.3,0,0.671-0.163,1.113-0.488s0.898-0.739,1.367-1.24
		c0.415-0.443,0.805-0.926,1.184-1.426c-0.179,0.743-0.367,1.526-0.578,2.393c0.039,0.144,0.098,0.257,0.176,0.342
		s0.156,0.153,0.234,0.205c0.091,0.052,0.188,0.091,0.293,0.117c0.091,0.013,0.183,0.02,0.273,0.02
		C55.215,15.371,55.3,15.358,55.391,15.332z M55.117,10.596c-0.195,0.254-0.423,0.537-0.684,0.85s-0.544,0.632-0.85,0.957
		s-0.608,0.625-0.908,0.898s-0.589,0.491-0.869,0.654s-0.518,0.231-0.713,0.205c-0.247-0.013-0.456-0.091-0.625-0.234
		c-0.144-0.13-0.264-0.342-0.361-0.635s-0.107-0.72-0.029-1.279c0.339-0.781,0.645-1.517,0.918-2.207s0.508-1.302,0.703-1.836
		c0.222-0.612,0.417-1.179,0.586-1.699c0.078-0.222,0.14-0.433,0.186-0.635s0.095-0.407,0.146-0.615c0.104,0,0.205-0.003,0.303-0.01
		S53.105,5,53.184,5c0.417,0,0.781,0.013,1.094,0.039s0.583,0.052,0.811,0.078s0.423,0.059,0.586,0.098s0.31,0.065,0.439,0.078
		c0.104,0.021,0.196-0.001,0.283-0.046c-0.022,0.1-0.044,0.191-0.068,0.3c-0.183,0.769-0.442,1.882-0.781,3.34
		c-0.114,0.492-0.248,1.058-0.39,1.657C55.142,10.563,55.133,10.576,55.117,10.596z"/>
	<path fill="#424d55" d="M69.395,15.234c0.091,0.052,0.183,0.091,0.273,0.117c0.104,0.013,0.202,0.02,0.293,0.02
		c0.078,0,0.163-0.013,0.254-0.039s0.169-0.071,0.234-0.137c0.599-2.356,1.097-4.31,1.494-5.859s0.713-2.773,0.947-3.672
		c0.273-1.055,0.488-1.862,0.645-2.422c0.065-0.286,0.124-0.554,0.176-0.801c0.026-0.208,0.042-0.41,0.049-0.605
		s-0.029-0.325-0.107-0.391c-0.026-0.065-0.085-0.107-0.176-0.127s-0.188-0.029-0.293-0.029c-0.117,0-0.247,0.013-0.391,0.039
		s-0.286,0.059-0.43,0.098c-0.117,0.026-0.237,0.059-0.361,0.098S71.765,1.614,71.66,1.68c0.039,0.183,0.059,0.384,0.059,0.605
		S71.706,2.722,71.68,2.93c-0.026,0.234-0.059,0.476-0.098,0.723c-0.078,0.352-0.222,0.983-0.43,1.895
		c-0.183,0.769-0.446,1.882-0.791,3.34s-0.804,3.392-1.377,5.801c0.039,0.144,0.098,0.257,0.176,0.342S69.316,15.183,69.395,15.234z
		"/>
	<path fill="#424d55" d="M73.555,11.953c0,0.352,0.017,0.729,0.049,1.133s0.124,0.774,0.273,1.113s0.378,0.622,0.684,0.85
		s0.726,0.342,1.26,0.342c0.456,0,0.876-0.088,1.26-0.264s0.729-0.42,1.035-0.732s0.569-0.684,0.791-1.113s0.397-0.892,0.527-1.387
		c0.391-0.13,0.801-0.325,1.23-0.586c0.385-0.234,0.735-0.474,1.067-0.718c-0.005,0.332-0.002,0.68,0.017,1.06
		c0.032,0.645,0.117,1.25,0.254,1.816s0.332,1.042,0.586,1.426s0.583,0.576,0.986,0.576c0.169,0,0.394-0.114,0.674-0.342
		s0.586-0.527,0.918-0.898s0.677-0.791,1.035-1.26s0.706-0.95,1.045-1.445c0.13,0.039,0.254,0.065,0.371,0.078
		s0.215,0.02,0.293,0.02c0.846,0,1.586-0.162,2.23-0.473c-0.064,0.24-0.118,0.478-0.141,0.708c-0.065,0.651-0.017,1.204,0.146,1.66
		s0.381,0.827,0.654,1.113s0.576,0.498,0.908,0.635s0.642,0.205,0.928,0.205c0.547,0,1.11-0.13,1.689-0.391s1.146-0.603,1.699-1.025
		s1.077-0.905,1.572-1.445s0.938-1.097,1.328-1.67c0.091-0.144,0.137-0.271,0.137-0.381s-0.029-0.188-0.088-0.234
		s-0.137-0.059-0.234-0.039s-0.192,0.081-0.283,0.186c-0.261,0.313-0.589,0.684-0.986,1.113s-0.827,0.843-1.289,1.24
		s-0.935,0.735-1.416,1.016s-0.944,0.42-1.387,0.42c-0.208,0-0.413-0.029-0.615-0.088s-0.381-0.156-0.537-0.293
		s-0.286-0.315-0.391-0.537s-0.163-0.495-0.176-0.82c0.195-0.144,0.423-0.303,0.684-0.479s0.534-0.361,0.82-0.557
		c0.261-0.183,0.537-0.384,0.83-0.605s0.569-0.469,0.83-0.742s0.485-0.579,0.674-0.918s0.303-0.71,0.342-1.113
		c0.026-0.364-0.071-0.671-0.293-0.918s-0.579-0.371-1.074-0.371c-0.521,0-1.038,0.163-1.553,0.488s-0.977,0.735-1.387,1.23
		c-0.408,0.493-0.751,1.033-1.03,1.622c-0.022,0.013-0.041,0.026-0.063,0.038c-0.267,0.144-0.579,0.267-0.938,0.371
		s-0.759,0.156-1.201,0.156c-0.104,0-0.195-0.013-0.273-0.039s-0.149-0.052-0.215-0.078c0.339-0.56,0.615-1.077,0.83-1.553
		s0.335-0.85,0.361-1.123c0.026-0.183-0.003-0.361-0.088-0.537s-0.296-0.264-0.635-0.264c-0.169,0-0.361,0.068-0.576,0.205
		S87.282,7.663,87.08,7.91s-0.381,0.55-0.537,0.908s-0.254,0.759-0.293,1.201c-0.013,0.286,0.02,0.534,0.098,0.742
		c-0.222,0.403-0.459,0.794-0.713,1.172s-0.495,0.71-0.723,0.996s-0.43,0.518-0.605,0.693s-0.296,0.264-0.361,0.264
		c-0.052,0-0.124-0.065-0.215-0.195s-0.176-0.322-0.254-0.576s-0.137-0.566-0.176-0.938s-0.039-0.804,0-1.299
		c0.026-0.286,0.068-0.586,0.127-0.898s0.12-0.612,0.186-0.898s0.127-0.544,0.186-0.771s0.101-0.4,0.127-0.518
		c0.039-0.13,0.032-0.228-0.02-0.293s-0.127-0.107-0.225-0.127s-0.205-0.022-0.322-0.01s-0.222,0.032-0.313,0.059
		c-0.208,0.052-0.381,0.117-0.518,0.195s-0.254,0.202-0.352,0.371s-0.179,0.407-0.244,0.713c-0.052,0.241-0.098,0.563-0.141,0.93
		c-0.102,0.067-0.191,0.136-0.299,0.203c-0.306,0.188-0.622,0.368-0.947,0.537s-0.638,0.313-0.938,0.43
		c0.013-0.104,0.026-0.231,0.039-0.381s0.02-0.276,0.02-0.381c0-0.508-0.085-0.94-0.254-1.299s-0.374-0.654-0.615-0.889
		s-0.488-0.41-0.742-0.527s-0.466-0.183-0.635-0.195c-0.039-0.013-0.075-0.026-0.107-0.039s-0.068-0.02-0.107-0.02
		c-0.234,0-0.476,0.029-0.723,0.088s-0.479,0.144-0.693,0.254s-0.403,0.251-0.566,0.42s-0.283,0.364-0.361,0.586
		c-0.222,0.261-0.413,0.547-0.576,0.859s-0.296,0.625-0.4,0.938s-0.186,0.618-0.244,0.918S73.555,11.706,73.555,11.953z
		 M92.734,8.838c0.208-0.293,0.42-0.518,0.635-0.674s0.4-0.234,0.557-0.234c0.144,0,0.254,0.056,0.332,0.166s0.104,0.29,0.078,0.537
		c-0.026,0.234-0.149,0.515-0.371,0.84s-0.612,0.703-1.172,1.133c-0.183,0.144-0.364,0.276-0.547,0.4s-0.352,0.244-0.508,0.361
		c0.091-0.547,0.228-1.032,0.41-1.455S92.526,9.131,92.734,8.838z M76.133,8.926c0.195-0.247,0.407-0.439,0.635-0.576
		s0.466-0.205,0.713-0.205c0.156,0,0.29,0.068,0.4,0.205s0.202,0.313,0.273,0.527s0.12,0.452,0.146,0.713s0.026,0.515,0,0.762
		c0,0.104-0.017,0.225-0.049,0.361s-0.068,0.29-0.107,0.459c-0.065,0.013-0.13,0.022-0.195,0.029s-0.13,0.01-0.195,0.01
		c-0.403,0-0.72-0.062-0.947-0.186s-0.394-0.276-0.498-0.459s-0.169-0.388-0.195-0.615s-0.039-0.446-0.039-0.654
		C76.074,9.167,76.094,9.043,76.133,8.926z M74.961,11.621c0.052-0.261,0.117-0.527,0.195-0.801c0.195,0.456,0.472,0.83,0.83,1.123
		s0.784,0.439,1.279,0.439c0.104,0,0.198-0.003,0.283-0.01s0.173-0.017,0.264-0.029c-0.091,0.247-0.198,0.485-0.322,0.713
		s-0.264,0.43-0.42,0.605s-0.332,0.319-0.527,0.43s-0.41,0.166-0.645,0.166c-0.208,0-0.378-0.056-0.508-0.166
		s-0.234-0.254-0.313-0.43s-0.13-0.378-0.156-0.605s-0.039-0.459-0.039-0.693S74.909,11.882,74.961,11.621z"/>
	<path fill="#424d55" d="M98.535,13.535c-0.378-0.052-0.729,0.036-1.055,0.264s-0.515,0.511-0.566,0.85
		c-0.026,0.273,0.032,0.485,0.176,0.635s0.313,0.237,0.508,0.264c0.065,0.013,0.127,0.017,0.186,0.01s0.12-0.017,0.186-0.029
		c-0.065,0.3-0.179,0.576-0.342,0.83s-0.31,0.446-0.439,0.576c-0.078,0.065-0.127,0.137-0.146,0.215s-0.017,0.144,0.01,0.195
		s0.078,0.085,0.156,0.098s0.176-0.013,0.293-0.078c0.3-0.169,0.554-0.361,0.762-0.576s0.384-0.439,0.527-0.674
		s0.254-0.459,0.332-0.674s0.13-0.407,0.156-0.576c0.065-0.325,0.042-0.618-0.068-0.879S98.874,13.574,98.535,13.535z"/>
	<path fill="#424d55" d="M9.941,33.973c0.078-0.039,0.146-0.088,0.205-0.146s0.107-0.12,0.146-0.186
		c0.052-0.065,0.085-0.137,0.098-0.215s0.026-0.156,0.039-0.234c0.026-0.156,0.02-0.286-0.02-0.391
		c-0.417-0.052-0.837-0.095-1.26-0.127s-0.804-0.062-1.143-0.088c-0.403-0.026-0.794-0.046-1.172-0.059
		c-0.052-0.013-0.114-0.022-0.186-0.029s-0.166,0.003-0.283,0.029c-0.104,0-0.208-0.003-0.313-0.01s-0.208-0.01-0.313-0.01
		c-0.481,0-0.983,0.02-1.504,0.059c-0.456,0.026-0.967,0.065-1.533,0.117s-1.149,0.13-1.748,0.234
		c-0.117,0.026-0.212,0.075-0.283,0.146s-0.134,0.159-0.186,0.264s-0.095,0.215-0.127,0.332s-0.056,0.222-0.068,0.313
		c-0.013,0.104-0.02,0.212-0.02,0.322s0.02,0.212,0.059,0.303s0.098,0.156,0.176,0.195s0.195,0.032,0.352-0.02
		c0.156-0.039,0.368-0.091,0.635-0.156s0.566-0.134,0.898-0.205s0.687-0.14,1.064-0.205s0.762-0.124,1.152-0.176l-1.309,5.43
		c-0.3,1.276-0.566,2.405-0.801,3.389s-0.437,1.843-0.605,2.578s-0.315,1.36-0.439,1.875s-0.225,0.94-0.303,1.279
		c-0.195,0.808-0.313,1.302-0.352,1.484c-0.052,0.208-0.042,0.349,0.029,0.42s0.264,0.107,0.576,0.107c0.144,0,0.3-0.02,0.469-0.059
		c0.144-0.026,0.306-0.068,0.488-0.127s0.378-0.14,0.586-0.244c0.026-0.234,0.059-0.495,0.098-0.781s0.081-0.586,0.127-0.898
		s0.098-0.632,0.156-0.957s0.114-0.638,0.166-0.938c0.13-0.716,0.261-1.445,0.391-2.188c0.13-0.769,0.31-1.631,0.537-2.588
		s0.469-1.921,0.723-2.891s0.505-1.895,0.752-2.773s0.456-1.618,0.625-2.217h1.055c0.313,0,0.674,0.003,1.084,0.01
		S9.499,33.96,9.941,33.973z"/>
	<path fill="#424d55" d="M32.715,33.318c-0.091-0.02-0.188-0.029-0.293-0.029c-0.117,0-0.247,0.013-0.391,0.039
		s-0.286,0.059-0.43,0.098c-0.117,0.026-0.237,0.059-0.361,0.098s-0.237,0.091-0.342,0.156c0.039,0.183,0.059,0.384,0.059,0.605
		s-0.013,0.437-0.039,0.645c-0.026,0.234-0.059,0.476-0.098,0.723c-0.078,0.352-0.222,0.983-0.43,1.895
		c-0.183,0.769-0.446,1.882-0.791,3.34c-0.135,0.569-0.292,1.233-0.461,1.947c-0.199,0.229-0.416,0.472-0.671,0.748
		c-0.397,0.43-0.827,0.843-1.289,1.24s-0.935,0.735-1.416,1.016s-0.944,0.42-1.387,0.42c-0.208,0-0.413-0.029-0.615-0.088
		s-0.381-0.156-0.537-0.293s-0.286-0.315-0.391-0.537s-0.163-0.495-0.176-0.82c0.195-0.144,0.423-0.303,0.684-0.479
		s0.534-0.361,0.82-0.557c0.261-0.183,0.537-0.384,0.83-0.605s0.569-0.469,0.83-0.742s0.485-0.579,0.674-0.918
		s0.303-0.71,0.342-1.113c0.026-0.364-0.071-0.671-0.293-0.918s-0.579-0.371-1.074-0.371c-0.521,0-1.038,0.163-1.553,0.488
		s-0.977,0.735-1.387,1.23c-0.399,0.481-0.733,1.011-1.01,1.585c-0.06,0.036-0.109,0.079-0.172,0.114
		c-0.234,0.13-0.495,0.237-0.781,0.322s-0.599,0.127-0.938,0.127c-0.364,0-0.664-0.052-0.898-0.156
		c0.195-0.651,0.345-1.233,0.449-1.748s0.156-0.876,0.156-1.084c0-0.286-0.163-0.43-0.488-0.43c-0.183,0-0.381,0.046-0.596,0.137
		s-0.417,0.231-0.605,0.42s-0.342,0.427-0.459,0.713s-0.176,0.632-0.176,1.035c0,0.183,0.013,0.342,0.039,0.479
		s0.059,0.276,0.098,0.42c-0.078,0.339-0.188,0.726-0.332,1.162s-0.31,0.85-0.498,1.24s-0.403,0.723-0.645,0.996
		s-0.505,0.41-0.791,0.41c-0.195,0-0.364-0.075-0.508-0.225s-0.267-0.339-0.371-0.566s-0.186-0.479-0.244-0.752
		s-0.107-0.534-0.146-0.781c0.013-0.052,0.039-0.104,0.078-0.156c0.403-0.911,0.752-1.748,1.045-2.51s0.439-1.351,0.439-1.768
		c0-0.169-0.052-0.3-0.156-0.391s-0.234-0.137-0.391-0.137c-0.391,0-0.706,0.117-0.947,0.352s-0.43,0.554-0.566,0.957
		s-0.228,0.872-0.273,1.406s-0.068,1.094-0.068,1.68c0,0.091,0,0.176,0,0.254s0.007,0.156,0.02,0.234
		c-0.378,0.872-0.765,1.491-1.162,1.855s-0.759,0.547-1.084,0.547c-0.273,0-0.476-0.091-0.605-0.273s-0.195-0.481-0.195-0.898
		c0-0.339,0.052-0.762,0.156-1.27s0.225-1.022,0.361-1.543s0.271-1.003,0.4-1.445s0.222-0.774,0.273-0.996
		c0.039-0.156,0.056-0.286,0.049-0.391s-0.081-0.163-0.225-0.176c-0.3-0.026-0.603,0.022-0.908,0.146s-0.505,0.251-0.596,0.381
		c-0.052,0.104-0.13,0.315-0.234,0.635s-0.205,0.693-0.303,1.123s-0.186,0.898-0.264,1.406S8.34,43.979,8.34,44.461v0.234
		c0,0.378,0.032,0.732,0.098,1.064s0.173,0.625,0.322,0.879s0.342,0.452,0.576,0.596s0.521,0.215,0.859,0.215
		c0.247,0,0.495-0.065,0.742-0.195s0.488-0.3,0.723-0.508s0.456-0.449,0.664-0.723s0.403-0.547,0.586-0.82
		c0.117,0.599,0.332,1.104,0.645,1.514s0.774,0.615,1.387,0.615c0.378,0,0.729-0.104,1.055-0.313s0.632-0.488,0.918-0.84
		s0.547-0.749,0.781-1.191s0.442-0.898,0.625-1.367c0.091,0.026,0.183,0.046,0.273,0.059s0.176,0.02,0.254,0.02
		c0.481,0,0.94-0.068,1.377-0.205c0.331-0.104,0.632-0.232,0.917-0.373c-0.069,0.25-0.123,0.496-0.146,0.734
		c-0.065,0.651-0.017,1.204,0.146,1.66s0.381,0.827,0.654,1.113s0.576,0.498,0.908,0.635s0.642,0.205,0.928,0.205
		c0.547,0,1.11-0.13,1.689-0.391s1.146-0.603,1.699-1.025s1.077-0.905,1.572-1.445c0.06-0.065,0.112-0.134,0.171-0.2
		c-0.169,0.712-0.346,1.458-0.542,2.28c0.039,0.144,0.098,0.257,0.176,0.342s0.156,0.153,0.234,0.205
		c0.091,0.052,0.183,0.091,0.273,0.117c0.104,0.013,0.202,0.02,0.293,0.02c0.078,0,0.163-0.013,0.254-0.039s0.169-0.071,0.234-0.137
		c0.599-2.356,1.097-4.31,1.494-5.859s0.713-2.773,0.947-3.672c0.273-1.055,0.488-1.862,0.645-2.422
		c0.065-0.286,0.124-0.554,0.176-0.801c0.026-0.208,0.042-0.41,0.049-0.605s-0.029-0.325-0.107-0.391
		C32.864,33.38,32.806,33.338,32.715,33.318z M23.73,40.838c0.208-0.293,0.42-0.518,0.635-0.674s0.4-0.234,0.557-0.234
		c0.144,0,0.254,0.056,0.332,0.166s0.104,0.29,0.078,0.537c-0.026,0.234-0.149,0.515-0.371,0.84s-0.612,0.703-1.172,1.133
		c-0.183,0.144-0.364,0.276-0.547,0.4s-0.352,0.244-0.508,0.361c0.091-0.547,0.228-1.032,0.41-1.455S23.522,41.131,23.73,40.838z"/>
	<path fill="#424d55" d="M50.107,42.283c-0.098,0.02-0.192,0.081-0.283,0.186c-0.261,0.313-0.589,0.684-0.986,1.113
		s-0.827,0.843-1.289,1.24s-0.935,0.735-1.416,1.016s-0.944,0.42-1.387,0.42c-0.208,0-0.413-0.029-0.615-0.088
		s-0.381-0.156-0.537-0.293s-0.286-0.315-0.391-0.537s-0.163-0.495-0.176-0.82c0.195-0.144,0.423-0.303,0.684-0.479
		s0.534-0.361,0.82-0.557c0.261-0.183,0.537-0.384,0.83-0.605s0.569-0.469,0.83-0.742s0.485-0.579,0.674-0.918
		s0.303-0.71,0.342-1.113c0.026-0.364-0.071-0.671-0.293-0.918s-0.579-0.371-1.074-0.371c-0.521,0-1.038,0.163-1.553,0.488
		s-0.977,0.735-1.387,1.23c-0.408,0.492-0.751,1.033-1.03,1.622c-0.022,0.013-0.041,0.025-0.063,0.038
		c-0.267,0.144-0.579,0.267-0.938,0.371s-0.759,0.156-1.201,0.156c-0.104,0-0.195-0.013-0.273-0.039s-0.149-0.052-0.215-0.078
		c0.339-0.56,0.615-1.077,0.83-1.553s0.335-0.85,0.361-1.123c0.026-0.183-0.003-0.361-0.088-0.537s-0.296-0.264-0.635-0.264
		c-0.169,0-0.361,0.068-0.576,0.205s-0.423,0.329-0.625,0.576s-0.381,0.55-0.537,0.908s-0.254,0.759-0.293,1.201
		c-0.013,0.286,0.02,0.534,0.098,0.742c-0.222,0.403-0.459,0.794-0.713,1.172s-0.495,0.71-0.723,0.996s-0.43,0.518-0.605,0.693
		s-0.296,0.264-0.361,0.264c-0.052,0-0.124-0.065-0.215-0.195s-0.176-0.322-0.254-0.576s-0.137-0.566-0.176-0.938
		s-0.039-0.804,0-1.299c0.026-0.286,0.068-0.586,0.127-0.898s0.12-0.612,0.186-0.898s0.127-0.544,0.186-0.771s0.101-0.4,0.127-0.518
		c0.039-0.13,0.032-0.228-0.02-0.293s-0.127-0.107-0.225-0.127s-0.205-0.022-0.322-0.01s-0.222,0.032-0.313,0.059
		c-0.208,0.052-0.381,0.117-0.518,0.195s-0.254,0.202-0.352,0.371s-0.179,0.407-0.244,0.713s-0.124,0.713-0.176,1.221
		c-0.039,0.508-0.042,1.084-0.01,1.729s0.117,1.25,0.254,1.816s0.332,1.042,0.586,1.426s0.583,0.576,0.986,0.576
		c0.169,0,0.394-0.114,0.674-0.342s0.586-0.527,0.918-0.898s0.677-0.791,1.035-1.26s0.706-0.95,1.045-1.445
		c0.13,0.039,0.254,0.065,0.371,0.078s0.215,0.02,0.293,0.02c0.846,0,1.586-0.162,2.23-0.473c-0.064,0.24-0.118,0.478-0.141,0.707
		c-0.065,0.651-0.017,1.204,0.146,1.66s0.381,0.827,0.654,1.113s0.576,0.498,0.908,0.635s0.642,0.205,0.928,0.205
		c0.547,0,1.11-0.13,1.689-0.391s1.146-0.603,1.699-1.025s1.077-0.905,1.572-1.445s0.938-1.097,1.328-1.67
		c0.091-0.144,0.137-0.271,0.137-0.381s-0.029-0.188-0.088-0.234S50.205,42.264,50.107,42.283z M44.102,40.838
		c0.208-0.293,0.42-0.518,0.635-0.674s0.4-0.234,0.557-0.234c0.144,0,0.254,0.056,0.332,0.166s0.104,0.29,0.078,0.537
		c-0.026,0.234-0.149,0.515-0.371,0.84s-0.612,0.703-1.172,1.133c-0.183,0.144-0.364,0.276-0.547,0.4s-0.352,0.244-0.508,0.361
		c0.091-0.547,0.228-1.032,0.41-1.455S43.894,41.131,44.102,40.838z"/>
	<path fill="#424d55" d="M64.766,33.973c0.078-0.039,0.146-0.088,0.205-0.146s0.107-0.12,0.146-0.186
		c0.052-0.065,0.085-0.137,0.098-0.215s0.026-0.156,0.039-0.234c0.026-0.156,0.02-0.286-0.02-0.391
		c-0.417-0.052-0.837-0.095-1.26-0.127s-0.804-0.062-1.143-0.088c-0.403-0.026-0.794-0.046-1.172-0.059
		c-0.052-0.013-0.114-0.022-0.186-0.029s-0.166,0.003-0.283,0.029c-0.104,0-0.208-0.003-0.313-0.01s-0.208-0.01-0.313-0.01
		c-0.481,0-0.983,0.02-1.504,0.059c-0.456,0.026-0.967,0.065-1.533,0.117s-1.149,0.13-1.748,0.234
		c-0.117,0.026-0.212,0.075-0.283,0.146s-0.134,0.159-0.186,0.264s-0.095,0.215-0.127,0.332s-0.056,0.222-0.068,0.313
		c-0.013,0.104-0.02,0.212-0.02,0.322s0.02,0.212,0.059,0.303s0.098,0.156,0.176,0.195s0.195,0.032,0.352-0.02
		c0.156-0.039,0.368-0.091,0.635-0.156s0.566-0.134,0.898-0.205s0.687-0.14,1.064-0.205s0.762-0.124,1.152-0.176l-1.309,5.43
		c-0.3,1.276-0.566,2.405-0.801,3.389s-0.437,1.843-0.605,2.578s-0.315,1.36-0.439,1.875s-0.225,0.94-0.303,1.279
		c-0.195,0.808-0.313,1.302-0.352,1.484c-0.052,0.208-0.042,0.349,0.029,0.42s0.264,0.107,0.576,0.107c0.144,0,0.3-0.02,0.469-0.059
		c0.144-0.026,0.306-0.068,0.488-0.127s0.378-0.14,0.586-0.244c0.026-0.234,0.059-0.495,0.098-0.781s0.081-0.586,0.127-0.898
		s0.098-0.632,0.156-0.957s0.114-0.638,0.166-0.938c0.13-0.716,0.261-1.445,0.391-2.188c0.13-0.769,0.31-1.631,0.537-2.588
		s0.469-1.921,0.723-2.891s0.505-1.895,0.752-2.773s0.456-1.618,0.625-2.217h1.055c0.313,0,0.674,0.003,1.084,0.01
		S64.323,33.96,64.766,33.973z"/>
	<path fill="#424d55" d="M102.979,42.322c-0.059-0.046-0.137-0.059-0.234-0.039s-0.192,0.081-0.283,0.186
		c-0.261,0.313-0.589,0.684-0.986,1.113s-0.827,0.843-1.289,1.24s-0.935,0.735-1.416,1.016s-0.944,0.42-1.387,0.42
		c-0.208,0-0.413-0.029-0.615-0.088s-0.381-0.156-0.537-0.293s-0.286-0.315-0.391-0.537s-0.163-0.495-0.176-0.82
		c0.195-0.144,0.423-0.303,0.684-0.479s0.534-0.361,0.82-0.557c0.261-0.183,0.537-0.384,0.83-0.605s0.569-0.469,0.83-0.742
		s0.485-0.579,0.674-0.918s0.303-0.71,0.342-1.113c0.026-0.364-0.071-0.671-0.293-0.918s-0.579-0.371-1.074-0.371
		c-0.521,0-1.038,0.163-1.553,0.488s-0.977,0.735-1.387,1.23s-0.755,1.038-1.035,1.631c-0.236,0.499-0.373,0.973-0.446,1.43
		c-0.259,0.346-0.519,0.691-0.804,1.021c-0.371,0.43-0.752,0.801-1.143,1.113s-0.749,0.469-1.074,0.469
		c-0.417,0-0.554-0.325-0.41-0.977l0.664-2.637c0.078-0.352,0.134-0.716,0.166-1.094s0.013-0.729-0.059-1.055
		s-0.202-0.593-0.391-0.801s-0.459-0.313-0.811-0.313c-0.3,0-0.599,0.071-0.898,0.215s-0.589,0.325-0.869,0.547
		s-0.547,0.472-0.801,0.752s-0.485,0.557-0.693,0.83c0.039-0.313,0.052-0.615,0.039-0.908s-0.062-0.547-0.146-0.762
		s-0.202-0.388-0.352-0.518s-0.335-0.195-0.557-0.195c-0.286,0-0.576,0.065-0.869,0.195s-0.583,0.306-0.869,0.527
		s-0.569,0.472-0.85,0.752s-0.544,0.576-0.791,0.889c0.104-0.403,0.183-0.71,0.234-0.918c0.144-0.716,0.007-1.074-0.41-1.074
		c-0.091,0-0.202,0.02-0.332,0.059c-0.104,0.026-0.241,0.065-0.41,0.117s-0.364,0.13-0.586,0.234
		c0.026,0.091,0.036,0.205,0.029,0.342s-0.022,0.276-0.049,0.42c-0.026,0.156-0.059,0.319-0.098,0.488l-0.287,1.191
		c-0.256,0.305-0.57,0.661-0.953,1.074c-0.397,0.43-0.827,0.843-1.289,1.24s-0.935,0.735-1.416,1.016s-0.944,0.42-1.387,0.42
		c-0.208,0-0.413-0.029-0.615-0.088s-0.381-0.156-0.537-0.293s-0.286-0.315-0.391-0.537s-0.163-0.495-0.176-0.82
		c0.195-0.144,0.423-0.303,0.684-0.479s0.534-0.361,0.82-0.557c0.261-0.183,0.537-0.384,0.83-0.605s0.569-0.469,0.83-0.742
		s0.485-0.579,0.674-0.918s0.303-0.71,0.342-1.113c0.026-0.364-0.071-0.671-0.293-0.918s-0.579-0.371-1.074-0.371
		c-0.521,0-1.038,0.163-1.553,0.488s-0.977,0.735-1.387,1.23s-0.755,1.038-1.035,1.631c-0.233,0.494-0.368,0.962-0.443,1.414
		c-0.039,0.045-0.072,0.084-0.113,0.129c-0.183,0.202-0.371,0.4-0.566,0.596s-0.371,0.358-0.527,0.488
		c-0.69,0.56-1.208,0.896-1.553,1.006s-0.576,0.062-0.693-0.146c-0.091-0.156-0.104-0.339-0.039-0.547s0.156-0.462,0.273-0.762
		c0.169-0.43,0.315-0.808,0.439-1.133s0.225-0.622,0.303-0.889s0.14-0.511,0.186-0.732s0.068-0.437,0.068-0.645
		c0.013-0.339-0.013-0.622-0.078-0.85s-0.159-0.41-0.283-0.547s-0.267-0.234-0.43-0.293s-0.335-0.088-0.518-0.088
		c-0.352,0-0.684,0.075-0.996,0.225s-0.608,0.339-0.889,0.566s-0.537,0.479-0.771,0.752s-0.437,0.54-0.605,0.801
		c0.286-1.133,0.599-2.197,0.938-3.193s0.645-2.021,0.918-3.076c0.065-0.286,0.124-0.554,0.176-0.801
		c0.026-0.208,0.042-0.41,0.049-0.605s-0.029-0.325-0.107-0.391c-0.026-0.065-0.085-0.107-0.176-0.127s-0.188-0.029-0.293-0.029
		c-0.117,0-0.247,0.013-0.391,0.039s-0.286,0.059-0.43,0.098c-0.117,0.026-0.237,0.059-0.361,0.098s-0.237,0.091-0.342,0.156
		c0.039,0.183,0.059,0.384,0.059,0.605s-0.013,0.437-0.039,0.645c-0.026,0.234-0.059,0.476-0.098,0.723
		c-0.078,0.352-0.222,0.983-0.43,1.895c-0.183,0.769-0.442,1.882-0.781,3.34s-0.801,3.392-1.387,5.801
		c0.039,0.144,0.098,0.257,0.176,0.342s0.156,0.153,0.234,0.205c0.091,0.052,0.188,0.091,0.293,0.117
		c0.091,0.013,0.183,0.02,0.273,0.02c0.078,0,0.163-0.013,0.254-0.039s0.176-0.071,0.254-0.137c0.091-0.378,0.186-0.811,0.283-1.299
		s0.192-0.94,0.283-1.357c0.104-0.495,0.208-0.996,0.313-1.504c0.169-0.273,0.364-0.554,0.586-0.84s0.452-0.544,0.693-0.771
		s0.481-0.413,0.723-0.557s0.466-0.215,0.674-0.215c0.3,0,0.469,0.146,0.508,0.439s0.01,0.647-0.088,1.064s-0.228,0.85-0.391,1.299
		s-0.29,0.837-0.381,1.162c-0.144,0.521-0.218,0.954-0.225,1.299s0.107,0.667,0.342,0.967c0.261,0.339,0.524,0.508,0.791,0.508
		s0.596-0.11,0.986-0.332c0.352-0.195,0.716-0.442,1.094-0.742s0.752-0.618,1.123-0.957c0.221-0.202,0.418-0.414,0.623-0.623
		c0.023,0.285,0.074,0.546,0.158,0.779c0.163,0.456,0.381,0.827,0.654,1.113s0.576,0.498,0.908,0.635s0.642,0.205,0.928,0.205
		c0.547,0,1.11-0.13,1.689-0.391s1.146-0.603,1.699-1.025s1.077-0.905,1.572-1.445c0.156-0.171,0.299-0.346,0.444-0.52l-0.562,2.326
		c-0.065,0.286-0.078,0.501-0.039,0.645s0.101,0.237,0.186,0.283s0.176,0.062,0.273,0.049s0.179-0.032,0.244-0.059l0.977-0.43
		c0.026-0.091,0.046-0.188,0.059-0.293s0.032-0.202,0.059-0.293c0.026-0.104,0.052-0.208,0.078-0.313v0.039
		c0.234-1.067,0.518-1.937,0.85-2.607s0.667-1.194,1.006-1.572s0.645-0.632,0.918-0.762s0.469-0.195,0.586-0.195
		c0.156,0,0.276,0.046,0.361,0.137s0.127,0.261,0.127,0.508c0,0.352-0.049,0.765-0.146,1.24s-0.212,0.95-0.342,1.426
		s-0.264,0.915-0.4,1.318s-0.231,0.696-0.283,0.879c-0.104,0.378-0.117,0.615-0.039,0.713s0.247,0.14,0.508,0.127
		c0.091-0.013,0.195-0.032,0.313-0.059c0.222-0.039,0.456-0.124,0.703-0.254c0.195-1.172,0.466-2.139,0.811-2.9
		s0.696-1.367,1.055-1.816s0.69-0.765,0.996-0.947s0.511-0.273,0.615-0.273c0.222,0,0.378,0.091,0.469,0.273s0.098,0.442,0.02,0.781
		c-0.065,0.273-0.144,0.586-0.234,0.938s-0.183,0.713-0.273,1.084s-0.166,0.732-0.225,1.084s-0.088,0.664-0.088,0.938
		s0.046,0.498,0.137,0.674s0.212,0.315,0.361,0.42s0.313,0.176,0.488,0.215s0.354,0.059,0.537,0.059
		c0.547,0,1.074-0.163,1.582-0.488s0.986-0.729,1.436-1.211c0.239-0.257,0.441-0.551,0.661-0.827c0.028,0.2,0.059,0.4,0.12,0.573
		c0.163,0.456,0.381,0.827,0.654,1.113s0.576,0.498,0.908,0.635s0.642,0.205,0.928,0.205c0.547,0,1.11-0.13,1.689-0.391
		s1.146-0.603,1.699-1.025s1.077-0.905,1.572-1.445s0.938-1.097,1.328-1.67c0.091-0.144,0.137-0.271,0.137-0.381
		S103.037,42.368,102.979,42.322z M74.355,41.912c0.183-0.423,0.378-0.781,0.586-1.074s0.42-0.518,0.635-0.674
		s0.4-0.234,0.557-0.234c0.144,0,0.254,0.056,0.332,0.166s0.104,0.29,0.078,0.537c-0.026,0.234-0.149,0.515-0.371,0.84
		S75.56,42.176,75,42.605c-0.183,0.144-0.364,0.276-0.547,0.4s-0.352,0.244-0.508,0.361C74.036,42.82,74.173,42.335,74.355,41.912z
		 M96.152,41.912c0.183-0.423,0.378-0.781,0.586-1.074s0.42-0.518,0.635-0.674s0.4-0.234,0.557-0.234
		c0.144,0,0.254,0.056,0.332,0.166s0.104,0.29,0.078,0.537c-0.026,0.234-0.149,0.515-0.371,0.84s-0.612,0.703-1.172,1.133
		c-0.183,0.144-0.364,0.276-0.547,0.4s-0.352,0.244-0.508,0.361C95.833,42.82,95.97,42.335,96.152,41.912z"/>
</g>
</svg>
