<?xml version="1.0" encoding="utf-8"?>
<!-- Generator: Adobe Illustrator 16.0.0, SVG Export Plug-In . SVG Version: 6.00 Build 0)  -->
<!DOCTYPE svg PUBLIC "-//W3C//DTD SVG 1.1//EN" "http://www.w3.org/Graphics/SVG/1.1/DTD/svg11.dtd">
<svg version="1.1" id="Layer_1" xmlns="http://www.w3.org/2000/svg" xmlns:xlink="http://www.w3.org/1999/xlink" x="0px" y="0px"
	 width="11px" height="16px" viewBox="0 0 11 16" enable-background="new 0 0 11 16" xml:space="preserve">
<path fill="#404C54" d="M9.5,0l-8,0C0.671,0,0,0.671,0,1.5v13C0,15.328,0.671,16,1.5,16h8c0.828,0,1.5-0.672,1.5-1.501v-13
	C11,0.67,10.328,0,9.5,0z M10,14.499C10,14.775,9.775,15,9.5,15h-8C1.224,15,1,14.775,1,14.5v-1.002h9V14.499z M10,12.998H1V3l9,0
	V12.998z M10,2.5l-9,0v-1C1,1.224,1.224,1,1.5,1l8,0c0.275,0,0.5,0.224,0.5,0.5V2.5z"/>
</svg>
