<?xml version="1.0" encoding="utf-8"?>
<!-- Generator: Adobe Illustrator 16.0.0, SVG Export Plug-In . SVG Version: 6.00 Build 0)  -->
<!DOCTYPE svg PUBLIC "-//W3C//DTD SVG 1.1//EN" "http://www.w3.org/Graphics/SVG/1.1/DTD/svg11.dtd">
<svg version="1.1" id="Layer_1" xmlns="http://www.w3.org/2000/svg" xmlns:xlink="http://www.w3.org/1999/xlink" x="0px" y="0px"
	 width="11px" height="14px" viewBox="0 0 11 14" enable-background="new 0 0 11 14" xml:space="preserve">
<path fill-rule="evenodd" clip-rule="evenodd" fill="#404C54" d="M5.5,7.763c1.517,0,2.75-1.177,2.75-2.625
	c0-1.447-1.233-2.625-2.75-2.625c-1.516,0-2.75,1.177-2.75,2.625C2.75,6.586,3.984,7.763,5.5,7.763z M5.5,2.951
	c1.264,0,2.292,0.981,2.292,2.188c0,1.207-1.028,2.188-2.292,2.188s-2.291-0.98-2.291-2.188C3.209,3.932,4.236,2.951,5.5,2.951z"/>
<path fill-rule="evenodd" clip-rule="evenodd" fill="#404C54" d="M5.5,0C2.467,0,0,2.326,0,5.25c0,3.063,2.75,6.195,4.756,8.397
	C4.763,13.656,5.084,14,5.482,14c0.001,0,0.033,0,0.035,0c0.398,0,0.72-0.344,0.727-0.353C8.25,11.445,11,8.313,11,5.25
	C11,2.326,8.533,0,5.5,0z M5.553,13.073c-0.009,0.009-0.037,0.028-0.062,0.043c-0.005-0.013-0.038-0.038-0.06-0.059
	C3.752,11.213,0.916,8.1,0.916,5.25c0-2.413,2.057-4.376,4.584-4.376s4.584,1.963,4.584,4.376C10.084,8.1,7.248,11.213,5.553,13.073
	z"/>
</svg>
