<?xml version="1.0" encoding="utf-8"?>
<!-- Generator: Adobe Illustrator 16.0.0, SVG Export Plug-In . SVG Version: 6.00 Build 0)  -->
<!DOCTYPE svg PUBLIC "-//W3C//DTD SVG 1.1//EN" "http://www.w3.org/Graphics/SVG/1.1/DTD/svg11.dtd">
<svg version="1.1" id="Layer_1" xmlns="http://www.w3.org/2000/svg" xmlns:xlink="http://www.w3.org/1999/xlink" x="0px" y="0px"
	 width="16px" height="11px" viewBox="0 0 16 11" enable-background="new 0 0 16 11" xml:space="preserve">
<path fill="#404C54" d="M14,0H2C0.896,0,0,0.938,0,2.096v6.809C0,10.062,0.896,11,2,11h12c1.104,0,2-0.938,2-2.096V2.096
	C16,0.938,15.104,0,14,0z M1,2.75L4.5,5.5L1,8.25V2.75z M15,8.904c0,0.578-0.449,1.047-1,1.047H2c-0.551,0-1-0.469-1-1.047
	l3.916-3.077L7.1,7.543C7.367,7.752,7.683,7.857,8,7.857s0.633-0.105,0.9-0.314l2.184-1.716L15,8.904L15,8.904z M15,8.25L11.5,5.5
	L15,2.75V8.25z M8.6,7.124C8.425,7.262,8.218,7.334,8,7.334s-0.425-0.072-0.6-0.21L5.333,5.5L4.916,5.172L1,2.096l0,0
	c0-0.578,0.449-1.049,1-1.049h12c0.551,0,1,0.471,1,1.049L8.6,7.124z"/>
</svg>
